<?xml version="1.0" standalone="no"?><!DOCTYPE svg PUBLIC "-//W3C//DTD SVG 1.1//EN" "http://www.w3.org/Graphics/SVG/1.1/DTD/svg11.dtd"><svg class="icon" height="512" viewBox="0 0 1024 1024" version="1.1" xmlns="http://www.w3.org/2000/svg"><path d="M512 999.619C242.688 999.619 24.381 781.312 24.381 512 24.381 242.712 242.688 24.381 512 24.381c269.288 0 487.619 218.331 487.619 487.619 0 269.312-218.331 487.619-487.619 487.619z m0-883.81c-218.819 0-396.19 177.372-396.19 396.191 0 218.795 177.371 396.166 396.19 396.166 218.795 0 396.166-177.371 396.166-396.166 0-218.819-177.347-396.19-396.166-396.19z m145.018 435.615l-242.42 151.942-0.195-0.317c-1.707 1.097-3.56 2.073-5.437 2.926a0.49 0.49 0 0 1-0.195 0.097c-1.829 0.805-3.73 1.536-5.656 2.097-0.147 0.049-0.293 0.073-0.44 0.122-0.828 0.244-1.657 0.488-2.535 0.634a1.48 1.48 0 0 1-0.439 0.122c-0.975 0.22-1.95 0.39-2.925 0.512-0.171 0-0.317 0.049-0.464 0.073-0.829 0.098-1.658 0.195-2.51 0.268-0.245 0-0.513 0.049-0.781 0.073-0.975 0.05-1.95 0.098-2.975 0.098-25.234 0-45.714-20.456-45.714-45.714V359.595c0-25.259 20.48-45.715 45.714-45.715 9.582 0 18.457 2.95 25.82 7.973l240.762 150.48c13.702 7.874 22.942 22.673 22.942 39.643 0.049 16.798-9.045 31.475-22.552 39.448z" fill="#333333" /></svg>